<svg width="200" height="200" viewBox="0 0 200 200" fill="none" xmlns="http://www.w3.org/2000/svg">
  <rect width="200" height="200" fill="#F3F4F6"/>
  <path d="M100 60C84.5 60 72 72.5 72 88C72 103.5 84.5 116 100 116C115.5 116 128 103.5 128 88C128 72.5 115.5 60 100 60ZM100 104C91.2 104 84 96.8 84 88C84 79.2 91.2 72 100 72C108.8 72 116 79.2 116 88C116 96.8 108.8 104 100 104Z" fill="#D1D5DB"/>
  <path d="M138 140C138 134.5 135.5 129.3 131.2 125.8C126.9 122.3 121.1 120 115 120H85C78.9 120 73.1 122.3 68.8 125.8C64.5 129.3 62 134.5 62 140V144H138V140Z" fill="#D1D5DB"/>
</svg> 